<?xml version="1.0" encoding="utf-8"?>
<!-- Generator: Adobe Illustrator 17.0.0, SVG Export Plug-In . SVG Version: 6.00 Build 0)  -->
<!DOCTYPE svg PUBLIC "-//W3C//DTD SVG 1.1//EN" "http://www.w3.org/Graphics/SVG/1.1/DTD/svg11.dtd">
<svg version="1.1" id="Layer_1" xmlns="http://www.w3.org/2000/svg" xmlns:xlink="http://www.w3.org/1999/xlink" x="0px" y="0px"
	 width="141px" height="47.267px" viewBox="0 0 141 47.267" enable-background="new 0 0 141 47.267" xml:space="preserve">
<path fill="#FFFFFF" d="M22.484,7.289c0-2.848,1.568-4.969,4.546-4.969c2.98,0,4.285,2.122,4.285,4.771
	c0,3.097-1.49,5.101-4.482,5.101C23.801,12.193,22.484,10.136,22.484,7.289z M29.732,7.223c0-2.425-1.067-3.559-2.741-3.559
	c-1.713,0-2.913,1.16-2.913,3.599c0,2.478,1.12,3.612,2.821,3.612C28.56,10.875,29.732,9.793,29.732,7.223z"/>
<path fill="#FFFFFF" d="M41.011,10.729h4.219v1.305h-5.76V2.491h1.542V10.729z"/>
<path fill="#FFFFFF" d="M53.122,12.035V2.491h3.098c3.308,0,4.732,1.78,4.732,4.627c0,2.926-1.542,4.917-4.956,4.917H53.122z
	 M55.983,10.783c2.36,0,3.387-1.318,3.387-3.52c0-2.702-1.16-3.52-3.269-3.52h-1.436v7.039H55.983z"/>
<path fill="#FFFFFF" d="M76.186,12.035h-1.674l-2.057-3.836h-1.819v3.836h-1.529V2.491h3.453c2.372,0,3.111,1.292,3.111,2.636
	c0,1.423-0.711,2.267-1.767,2.676L76.186,12.035z M71.98,1.028L73.048,0l1.081,0.119l-1.476,1.753h-1.358l-1.449-1.753l1.094-0.093
	L71.98,1.028z M72.125,6.96c1.121,0,1.952-0.37,1.952-1.727c0-1.134-0.738-1.476-1.99-1.476h-1.451V6.96H72.125z"/>
<path fill="#FFFFFF" d="M85.502,12.035h-1.543V2.491h1.543V12.035z"/>
<path fill="#FFFFFF" d="M93.684,7.395c0-3.137,1.674-5.074,4.509-5.074c2.055,0,3.493,1.041,3.637,3.335l-1.424,0.131
	c-0.158-1.437-0.803-2.135-2.227-2.135c-1.805,0-2.913,1.146-2.913,3.638c0,2.583,1.003,3.599,2.782,3.599
	c1.422,0,2.082-0.685,2.358-1.898l1.373,0.264c-0.33,2.162-2.124,2.939-3.811,2.939C94.897,12.193,93.684,10.282,93.684,7.395z"/>
<path fill="#FFFFFF" d="M117.183,12.035h-1.542V7.869h-4.244v4.166h-1.544V2.491h1.544v4.02h4.244v-4.02h1.542V12.035z"/>
<path fill="#FFFFFF" d="M8.086,46.82V23.493H0v-3.652h20.457v3.652h-8.011V46.82H8.086z"/>
<path fill="#FFFFFF" d="M36.89,46.82h-4.36V19.842h4.36V46.82z"/>
<path fill="#FFFFFF" d="M50.229,33.703c0-8.868,4.733-14.346,12.744-14.346c5.812,0,9.874,2.944,10.284,9.428l-4.023,0.373
	c-0.448-4.061-2.274-6.037-6.297-6.037c-5.106,0-8.235,3.242-8.235,10.285c0,7.303,2.831,10.172,7.863,10.172
	c4.024,0,5.887-1.937,6.67-5.366l3.875,0.746c-0.932,6.111-5.999,8.309-10.769,8.309C53.657,47.267,50.229,41.864,50.229,33.703z"/>
<path fill="#FFFFFF" d="M106.794,46.82h-4.36V35.045H90.435V46.82h-4.36V19.842h4.36v11.365h11.998V19.842h4.36V46.82z"/>
<path fill="#FFFFFF" d="M132.207,46.82h-4.397V36.499l-9.241-16.657h4.768l6.707,12.521h0.074l6.484-12.521H141l-8.831,16.582
	L132.207,46.82z M130.119,18.239l-3.129-0.41l3.577-5.105h4.845L130.119,18.239z"/>
</svg>
