<?xml version="1.0" encoding="utf-8"?>
<!-- Generator: Adobe Illustrator 17.0.0, SVG Export Plug-In . SVG Version: 6.00 Build 0)  -->
<!DOCTYPE svg PUBLIC "-//W3C//DTD SVG 1.1//EN" "http://www.w3.org/Graphics/SVG/1.1/DTD/svg11.dtd">
<svg version="1.1" id="Layer_1" xmlns="http://www.w3.org/2000/svg" xmlns:xlink="http://www.w3.org/1999/xlink" x="0px" y="0px"
	 width="22px" height="22px" viewBox="0 0 22 22" enable-background="new 0 0 22 22" xml:space="preserve">
<path fill="#FFFFFF" d="M19.6,3.337H2.4c-1.323,0-2.4,1.077-2.4,2.4v10.526c0,1.323,1.077,2.4,2.4,2.4h17.2
	c1.323,0,2.4-1.077,2.4-2.4V5.737C22,4.414,20.923,3.337,19.6,3.337z M14.143,11.533l6.571-5.921
	c0.004,0.041,0.012,0.082,0.012,0.125v10.526c0,0.072-0.008,0.141-0.021,0.21L14.143,11.533z M19.6,4.611
	c0.096,0,0.188,0.016,0.277,0.039l-8.877,8l-8.877-8C2.212,4.627,2.304,4.611,2.4,4.611H19.6z M1.295,16.473
	c-0.013-0.068-0.021-0.138-0.021-0.21V5.737c0-0.043,0.008-0.084,0.012-0.125l6.571,5.921L1.295,16.473z M2.4,17.389
	c-0.062,0-0.12-0.009-0.179-0.018l6.601-4.969l1.752,1.579c0.121,0.109,0.274,0.164,0.426,0.164c0.152,0,0.305-0.055,0.426-0.164
	l1.752-1.579l6.601,4.969c-0.059,0.01-0.118,0.018-0.179,0.018H2.4z"/>
</svg>
